<svg width="20" height="20" viewBox="0 0 20 20" fill="none" xmlns="http://www.w3.org/2000/svg">
  <path
    fill-rule="evenodd"
    clip-rule="evenodd"
    d="M2 3.5C2 2.67157 2.67157 2 3.5 2H4.18229C4.87838 2 5.45375 2.5297 5.5313 3.22287L5.64123 4.22813C5.68051 4.58827 5.54056 4.94507 5.26529 5.1864L4.11426 6.19393C4.85029 9.04364 6.95636 11.1497 9.80607 11.8857L10.8136 10.7347C11.0549 10.4594 11.4117 10.3195 11.7719 10.3588L12.7771 10.4687C13.4703 10.5463 14 11.1216 14 11.8177V16.5C14 17.3284 13.3284 18 12.5 18H11.5C6.25329 18 2 13.7467 2 8.5V3.5Z"
    fill="currentColor"
  />
</svg>
